<?xml version="1.0" standalone="no"?>
<!DOCTYPE svg PUBLIC "-//W3C//DTD SVG 20010904//EN"
 "http://www.w3.org/TR/2001/REC-SVG-20010904/DTD/svg10.dtd">
<svg version="1.0" xmlns="http://www.w3.org/2000/svg"
 width="96.000000pt" height="96.000000pt" viewBox="0 0 96.000000 96.000000"
 preserveAspectRatio="xMidYMid meet">

<g transform="translate(0.000000,96.000000) scale(0.100000,-0.100000)"
fill="#000000" stroke="none">
<path d="M352 828 c-7 -7 -12 -20 -12 -29 0 -15 -14 -18 -115 -21 -170 -5
-159 15 -163 -305 -3 -275 1 -302 44 -322 35 -15 713 -15 748 0 43 20 47 47
44 322 -4 320 7 300 -163 305 -101 3 -115 6 -115 21 0 35 -21 41 -140 41 -77
0 -120 -4 -128 -12z m206 -183 c104 -44 151 -167 103 -270 -71 -153 -291 -153
-362 0 -60 131 33 283 174 285 26 0 64 -7 85 -15z"/>
<path d="M450 540 l0 -50 -50 0 c-49 0 -50 -1 -50 -30 0 -29 1 -30 50 -30 l50
0 0 -50 c0 -49 1 -50 30 -50 29 0 30 1 30 50 l0 50 50 0 c49 0 50 1 50 30 0
29 -1 30 -50 30 l-50 0 0 50 c0 49 -1 50 -30 50 -29 0 -30 -1 -30 -50z"/>
</g>
</svg>
