<?xml version="1.0" standalone="no"?>
<!DOCTYPE svg PUBLIC "-//W3C//DTD SVG 20010904//EN"
 "http://www.w3.org/TR/2001/REC-SVG-20010904/DTD/svg10.dtd">
<svg version="1.0" xmlns="http://www.w3.org/2000/svg"
 width="96.000000pt" height="96.000000pt" viewBox="0 0 96.000000 96.000000"
 preserveAspectRatio="xMidYMid meet">

<g transform="translate(0.000000,96.000000) scale(0.100000,-0.100000)"
fill="#000000" stroke="none">
<path d="M668 819 l-128 -80 0 -54 c0 -55 16 -85 46 -85 10 0 14 -14 14 -55 0
-30 4 -55 9 -55 5 0 26 25 46 55 l38 55 108 0 c142 0 139 -3 139 150 0 111 -1
120 -22 134 -14 10 -42 16 -73 15 -45 0 -63 -9 -177 -80z"/>
<path d="M289 753 c-15 -2 -38 -17 -53 -34 -14 -16 -32 -29 -39 -29 -23 0 -58
-45 -72 -93 -21 -71 -29 -227 -13 -257 20 -37 58 -52 96 -39 l31 11 -30 40
c-41 58 -41 128 1 195 17 26 30 61 30 77 l0 31 19 -30 c26 -43 49 -61 129
-100 l72 -35 0 -48 c0 -38 -6 -58 -29 -90 l-30 -40 30 -11 c42 -14 76 1 96 44
15 31 15 46 5 132 -23 197 -111 296 -243 276z"/>
<path d="M325 147 l-210 -62 215 -3 c118 -1 225 0 237 3 13 3 25 16 29 29 8
33 -20 96 -43 95 -10 0 -112 -28 -228 -62z"/>
</g>
</svg>
